<?xml version="1.0" encoding="utf-8"?>
<svg viewBox="-3437.542 -1408.001 9946.12 2352.368" xmlns="http://www.w3.org/2000/svg">
  <g transform="matrix(30.325001, 0, 0, 30.325001, 3825.141113, -1787.442993)">
    <g>
      <path d="M74.265,60.41c0.964,2.929,1.401,5.966,1.261,9.015c2.584-0.989,5.013-2.49,7.095-4.572c0.244-0.244,0.41-0.527,0.637-0.78   c0.018-0.341,0.105-0.659,0.105-1.004c0-2.924-0.646-5.691-1.764-8.203C79.522,57.139,77.045,59.022,74.265,60.41z" style="fill: #ffffff;"/>
      <path d="M54.863,81.605c2.509,1.112,5.276,1.759,8.2,1.759c0.349,0,0.664-0.085,1.004-0.103c0.253-0.227,0.541-0.393,0.781-0.637   c2.08-2.085,3.585-4.516,4.572-7.104c-3.049,0.14-6.086-0.292-9.01-1.257C59.022,77.049,57.137,79.528,54.863,81.605z" style="fill: #ffffff;"/>
      <path d="M40.588,74.265c-2.925,0.965-5.965,1.396-9.013,1.257c0.988,2.588,2.49,5.023,4.573,7.104   c0.242,0.244,0.528,0.41,0.779,0.637c0.339,0.018,0.661,0.103,1.003,0.103c2.926,0,5.691-0.646,8.202-1.759   C43.861,79.528,41.976,77.049,40.588,74.265z" style="fill: #ffffff;"/>
      <path d="M26.731,60.41c-2.781-1.388-5.26-3.271-7.337-5.545c-1.112,2.512-1.758,5.279-1.758,8.203c0,0.345,0.085,0.663,0.1,1.004   c0.229,0.253,0.395,0.536,0.639,0.78c2.082,2.082,4.515,3.583,7.098,4.572C25.333,66.376,25.767,63.339,26.731,60.41z" style="fill: #ffffff;"/>
      <path d="M26.731,40.592c-0.964-2.929-1.398-5.966-1.259-9.016c-2.583,0.989-5.014,2.491-7.098,4.572   c-0.244,0.245-0.41,0.528-0.639,0.781c-0.015,0.341-0.1,0.659-0.1,1.004c0,2.924,0.646,5.69,1.76,8.205   C21.471,43.863,23.95,41.979,26.731,40.592z" style="fill: #ffffff;"/>
      <path d="M46.132,19.397c-2.511-1.114-5.275-1.76-8.202-1.76c-0.342,0-0.664,0.084-1.003,0.102   c-0.251,0.228-0.537,0.393-0.779,0.638c-2.083,2.08-3.585,4.515-4.573,7.103c3.048-0.14,6.088,0.293,9.013,1.257   C41.976,23.952,43.861,21.475,46.132,19.397z" style="fill: #ffffff;"/>
      <path d="M60.41,26.736c2.924-0.964,5.961-1.396,9.01-1.257c-0.99-2.588-2.492-5.017-4.572-7.103   c-0.24-0.245-0.528-0.41-0.781-0.638c-0.34-0.018-0.659-0.102-1.004-0.102c-2.924,0-5.691,0.646-8.2,1.76   C57.137,21.475,59.022,23.952,60.41,26.736z" style="fill: #ffffff;"/>
      <path d="M82.621,36.148c-2.082-2.081-4.511-3.583-7.095-4.572c0.14,3.05-0.297,6.087-1.261,9.016   c2.78,1.388,5.257,3.271,7.334,5.547c1.117-2.515,1.764-5.281,1.764-8.205c0-0.345-0.088-0.663-0.105-1.004   C83.031,36.677,82.865,36.394,82.621,36.148z" style="fill: #ffffff;"/>
      <path d="M58.228,63.068c0-0.166-0.048-0.319-0.052-0.484c-1.061-0.21-2.09-0.498-3.099-0.834c-0.462,0.921-0.89,1.851-1.469,2.719   c0.113,0.122,0.19,0.267,0.309,0.384c1.143,1.14,2.404,2.069,3.718,2.881C57.993,66.228,58.228,64.683,58.228,63.068z" style="fill: #ffffff;"/>
      <path d="M43.362,67.733c1.313-0.812,2.574-1.741,3.715-2.881c0.12-0.117,0.199-0.262,0.312-0.384   c-0.581-0.868-1.008-1.798-1.471-2.719c-1.008,0.336-2.038,0.624-3.1,0.834c-0.002,0.165-0.048,0.318-0.048,0.484   C42.771,64.683,43.006,66.228,43.362,67.733z" style="fill: #ffffff;"/>
      <path d="M36.148,53.922c-1.139,1.14-2.068,2.4-2.88,3.717c1.503,0.355,3.051,0.59,4.663,0.59c0.166,0,0.318-0.044,0.484-0.048   c0.209-1.06,0.495-2.094,0.833-3.102c-0.918-0.463-1.848-0.886-2.716-1.471C36.411,53.726,36.269,53.805,36.148,53.922z" style="fill: #ffffff;"/>
      <path d="M38.415,42.821c-0.166-0.006-0.319-0.05-0.484-0.05c-1.612,0-3.159,0.236-4.663,0.591c0.812,1.318,1.739,2.578,2.88,3.717   c0.12,0.118,0.262,0.196,0.384,0.314c0.868-0.583,1.797-1.008,2.716-1.471C38.91,44.916,38.625,43.881,38.415,42.821z" style="fill: #ffffff;"/>
      <path d="M42.771,37.934c0,0.166,0.046,0.318,0.048,0.484c1.062,0.21,2.092,0.498,3.1,0.834c0.462-0.921,0.89-1.851,1.471-2.719   c-0.113-0.123-0.192-0.267-0.312-0.385c-1.141-1.139-2.402-2.066-3.715-2.879C43.006,34.774,42.771,36.319,42.771,37.934z" style="fill: #ffffff;"/>
      <path d="M57.635,33.27c-1.314,0.812-2.575,1.74-3.718,2.879c-0.118,0.118-0.195,0.262-0.309,0.385   c0.579,0.868,1.007,1.798,1.469,2.719c1.008-0.336,2.038-0.624,3.099-0.834c0.004-0.166,0.052-0.318,0.052-0.484   C58.228,36.319,57.993,34.774,57.635,33.27z" style="fill: #ffffff;"/>
      <path d="M63.063,42.771c-0.166,0-0.314,0.044-0.48,0.05c-0.209,1.06-0.498,2.095-0.838,3.102c0.921,0.463,1.851,0.888,2.719,1.471   c0.122-0.118,0.266-0.196,0.384-0.314c1.139-1.139,2.067-2.398,2.883-3.717C66.226,43.008,64.678,42.771,63.063,42.771z" style="fill: #ffffff;"/>
      <path d="M48.074,49.493c-0.035,0.676-0.035,1.339,0,2.012c0.452,0.502,0.921,0.969,1.42,1.423c0.671,0.034,1.335,0.034,2.007,0   c0.5-0.454,0.972-0.926,1.423-1.423c0.035-0.673,0.033-1.336,0-2.008c-0.451-0.502-0.921-0.969-1.42-1.423   c-0.673-0.035-1.34-0.035-2.012,0C48.995,48.528,48.524,48.995,48.074,49.493z" style="fill: #ffffff;"/>
      <path d="M64.464,53.608c-0.868,0.585-1.798,1.008-2.719,1.471c0.34,1.008,0.628,2.042,0.838,3.102   c0.166,0.004,0.314,0.048,0.48,0.048c1.615,0,3.163-0.234,4.668-0.59c-0.816-1.316-1.745-2.577-2.883-3.717   C64.73,53.805,64.586,53.726,64.464,53.608z" style="fill: #ffffff;"/>
      <path d="M72.271,55.926c2.583-1.327,4.827-3.173,6.615-5.425c-1.788-2.252-4.031-4.098-6.615-5.425   c-1.091,1.929-2.357,3.784-3.998,5.425C69.914,52.142,71.179,53.996,72.271,55.926z" style="fill: #ffffff;"/>
      <path d="M62.138,31.245c0.585,2.133,0.925,4.367,0.925,6.688c2.322,0,4.555,0.341,6.689,0.93c0.868-2.745,1.143-5.603,0.82-8.436   C67.74,30.104,64.879,30.375,62.138,31.245z" style="fill: #ffffff;"/>
      <path d="M50.498,22.11c-2.253,1.794-4.099,4.033-5.424,6.616c1.927,1.096,3.782,2.361,5.424,4.002   c1.644-1.641,3.498-2.906,5.426-4.002C54.597,26.144,52.752,23.904,50.498,22.11z" style="fill: #ffffff;"/>
      <path d="M37.931,37.934c0-2.321,0.34-4.556,0.927-6.688c-2.74-0.87-5.601-1.141-8.432-0.817c-0.323,2.833-0.05,5.69,0.817,8.436   C33.377,38.274,35.612,37.934,37.931,37.934z" style="fill: #ffffff;"/>
      <path d="M22.108,50.501c1.794,2.252,4.034,4.098,6.618,5.425c1.091-1.93,2.356-3.784,3.999-5.425   c-1.643-1.641-2.908-3.496-4.001-5.425C26.143,46.403,23.902,48.249,22.108,50.501z" style="fill: #ffffff;"/>
      <path d="M38.858,69.757c-0.587-2.133-0.927-4.367-0.927-6.688c-2.319,0-4.553-0.341-6.688-0.93   c-0.868,2.745-1.14,5.604-0.817,8.436C33.257,70.896,36.118,70.627,38.858,69.757z" style="fill: #ffffff;"/>
      <path d="M50.498,78.891c2.255-1.793,4.1-4.032,5.426-6.616c-1.929-1.095-3.782-2.36-5.426-4c-1.642,1.64-3.497,2.905-5.424,4   C46.401,74.858,48.245,77.098,50.498,78.891z" style="fill: #ffffff;"/>
      <path d="M63.063,63.068c0,2.321-0.34,4.556-0.925,6.688c2.741,0.87,5.602,1.139,8.435,0.817c0.323-2.832,0.048-5.695-0.82-8.436   C67.618,62.728,65.385,63.068,63.063,63.068z" style="fill: #ffffff;"/>
      <path d="M87.425,44.026c-0.571,2.304-1.457,4.476-2.614,6.475c1.157,1.999,2.043,4.177,2.614,6.475   C88.844,52.771,88.844,48.231,87.425,44.026z" style="fill: #ffffff;"/>
      <path d="M81.233,29.05c-1.981-4.041-5.244-7.301-9.286-9.282c1.249,2.063,2.147,4.268,2.745,6.541   C76.966,26.907,79.165,27.802,81.233,29.05z" style="fill: #ffffff;"/>
      <path d="M56.971,13.576c-4.204-1.418-8.742-1.418-12.947,0c2.3,0.571,4.473,1.453,6.473,2.614   C52.5,15.029,54.671,14.147,56.971,13.576z" style="fill: #ffffff;"/>
      <path d="M29.047,19.768c-4.042,1.981-7.301,5.241-9.284,9.282c2.066-1.248,4.268-2.143,6.541-2.741   C26.904,24.035,27.798,21.831,29.047,19.768z" style="fill: #ffffff;"/>
      <path d="M13.571,56.973c0.574-2.3,1.458-4.473,2.616-6.472c-1.159-1.999-2.04-4.171-2.616-6.472   C12.158,48.231,12.158,52.771,13.571,56.973z" style="fill: #ffffff;"/>
      <path d="M19.765,71.952c1.981,4.041,5.24,7.297,9.279,9.282c-1.248-2.068-2.141-4.269-2.741-6.542   C24.031,74.095,21.829,73.2,19.765,71.952z" style="fill: #ffffff;"/>
      <path d="M44.024,87.426c4.205,1.418,8.746,1.418,12.947,0c-2.3-0.572-4.472-1.453-6.474-2.614   C48.498,85.973,46.324,86.854,44.024,87.426z" style="fill: #ffffff;"/>
      <path d="M71.952,81.234c4.037-1.985,7.3-5.241,9.281-9.282c-2.068,1.248-4.267,2.143-6.541,2.74   C74.095,76.966,73.2,79.166,71.952,81.234z" style="fill: #ffffff;"/>
    </g>
    <desc>Created with Snap</desc>
  </g>
  <g style="" transform="matrix(1.380999, 0, 0, 1.290119, -1410.765869, 614.095886)">
    <g transform="matrix(1.411832, 0, 0, -1.530718, -1476.086792, -126.679581)" style="">
      <path d="M94 0L239 679Q172 652 135 596Q99 541 99 461Q99 424 106 409Q113 395 113 393Q59 393 32 415Q6 438 6 490Q6 554 58 614Q111 675 193 712Q275 750 357 750Q371 750 397 748L238 0L94 0ZM983 -6Q922 -6 893 26Q865 59 865 107Q865 128 870 154Q875 181 880 206Q886 231 888 238Q896 273 903 307Q910 341 910 362Q910 413 874 413Q848 413 828 387Q808 362 796 321L728 0L584 0L657 345Q660 357 660 370Q660 414 630 414Q602 414 581 388Q561 363 549 321L481 0L337 0L443 500L587 500L576 448Q627 505 698 505Q786 505 801 419Q856 504 940 504Q991 504 1021 476Q1051 448 1051 391Q1051 362 1044 326Q1037 291 1024 240Q1016 209 1009 179Q1003 150 1003 133Q1003 113 1012 102Q1021 91 1043 91Q1073 91 1091 112Q1109 134 1127 179L1169 179Q1132 69 1083 31Q1035 -6 983 -6ZM1304 -250Q1256 -250 1224 -225Q1192 -200 1192 -153Q1192 -96 1238 -62Q1284 -27 1355 -4L1367 49Q1316 -6 1247 -6Q1190 -6 1152 33Q1114 72 1114 155Q1114 229 1143 310Q1173 392 1231 448Q1290 505 1371 505Q1412 505 1432 491Q1452 477 1452 454L1452 448L1463 500L1607 500L1508 36Q1556 52 1585 84Q1614 116 1634 179L1676 179Q1649 90 1603 48Q1557 7 1499 -8L1484 -80Q1464 -177 1415 -214Q1366 -250 1304 -250ZM1312 91Q1335 91 1359 112Q1383 133 1392 169L1443 406Q1443 418 1433 430Q1423 443 1402 443Q1362 443 1330 396Q1298 350 1280 284Q1262 219 1262 169Q1262 119 1276 105Q1291 91 1312 91ZM1281 -172Q1298 -172 1314 -149Q1330 -126 1339 -83L1345 -54Q1247 -90 1247 -139Q1247 -152 1256 -162Q1265 -172 1281 -172ZM1898 0L1882 683Q1811 656 1772 599Q1733 543 1733 461Q1733 424 1740 409Q1747 395 1747 393Q1693 393 1666 415Q1640 438 1640 490Q1640 554 1692 614Q1745 675 1827 712Q1909 750 1991 750Q2005 750 2031 748L2040 133L2250 745L2377 745L2386 133L2596 745L2666 745L2388 0L2244 0L2232 509L2042 0L1898 0ZM2763 554Q2730 554 2707 577Q2684 600 2684 633Q2684 666 2707 689Q2730 713 2763 713Q2796 713 2819 689Q2843 666 2843 633Q2843 600 2819 577Q2796 554 2763 554ZM2695 -6Q2647 -6 2617 24Q2588 54 2588 114Q2588 139 2596 179L2664 500L2808 500L2736 160Q2732 145 2732 128Q2732 108 2741 99Q2751 91 2773 91Q2802 91 2827 115Q2852 140 2863 179L2905 179Q2868 71 2810 32Q2752 -6 2695 -6ZM2983 -6Q2926 -6 2888 33Q2850 72 2850 155Q2850 229 2879 310Q2909 392 2967 448Q3026 505 3107 505Q3148 505 3168 491Q3188 477 3188 454L3188 450L3237 680L3385 700L3270 160Q3266 145 3266 128Q3266 108 3275 99Q3285 91 3307 91Q3335 91 3355 115Q3376 139 3388 179L3430 179Q3369 0 3229 0Q3188 0 3162 22Q3137 44 3131 86Q3105 46 3068 20Q3032 -6 2983 -6ZM3048 91Q3072 91 3096 113Q3121 135 3130 174L3130 179L3179 408Q3170 443 3138 443Q3098 443 3066 396Q3034 350 3016 284Q2998 219 2998 169Q2998 119 3012 105Q3027 91 3048 91ZM3531 -6Q3457 -6 3416 32Q3375 71 3375 153Q3375 222 3402 305Q3429 388 3490 448Q3551 509 3645 509Q3755 509 3755 413Q3755 357 3723 310Q3691 263 3638 234Q3585 206 3525 202Q3523 172 3523 162Q3523 113 3540 95Q3557 78 3595 78Q3649 78 3687 103Q3726 128 3772 179L3806 179Q3695 -6 3531 -6ZM3533 250Q3570 252 3603 276Q3637 300 3657 337Q3678 374 3678 415Q3678 456 3653 456Q3617 456 3582 393Q3548 330 3533 250Z" style="fill: #ffffff;"/>
    </g>
  </g>
</svg>